/* XPM */
static char *_8b1dfef0a004afe84693e84cc64728fI9xUaAWGMS73OUQC[] = {
/* columns rows colors chars-per-pixel */
"32 32 152 2 ",
"   c black",
".  c #010101",
"X  c #020202",
"o  c gray1",
"O  c #040404",
"+  c gray2",
"@  c #060606",
"#  c #070707",
"$  c gray3",
"%  c #090909",
"&  c #0B0B0B",
"*  c #0E0E0E",
"=  c gray6",
"-  c #101010",
";  c gray7",
":  c #131313",
">  c gray8",
",  c gray9",
"<  c #191919",
"1  c #1B1B1B",
"2  c gray11",
"3  c #1D1D1D",
"4  c #1E1E1E",
"5  c gray12",
"6  c #202020",
"7  c gray13",
"8  c #222222",
"9  c #232323",
"0  c gray14",
"q  c #252525",
"w  c gray15",
"e  c #272727",
"r  c #282828",
"t  c gray16",
"y  c #2A2A2A",
"u  c gray17",
"i  c #2C2C2C",
"p  c #2D2D2D",
"a  c gray18",
"s  c #2F2F2F",
"d  c gray19",
"f  c #313131",
"g  c gray20",
"h  c #343434",
"j  c #353535",
"k  c gray21",
"l  c #373737",
"z  c gray22",
"x  c #393939",
"c  c gray23",
"v  c #3C3C3C",
"b  c gray24",
"n  c #3E3E3E",
"m  c #3F3F3F",
"M  c #414141",
"N  c gray26",
"B  c #434343",
"V  c #444444",
"C  c gray27",
"Z  c #464646",
"A  c #484848",
"S  c gray29",
"D  c #4C4C4C",
"F  c #4E4E4E",
"G  c gray31",
"H  c gray34",
"J  c #5A5A5A",
"K  c gray36",
"L  c gray38",
"P  c #676767",
"I  c #686868",
"U  c #6C6C6C",
"Y  c #6F6F6F",
"T  c #747474",
"R  c gray48",
"E  c #838383",
"W  c #868686",
"Q  c #888888",
"!  c gray54",
"~  c #8B8B8B",
"^  c #8D8D8D",
"/  c #959595",
"(  c gray60",
")  c gray61",
"_  c gray63",
"`  c gray66",
"'  c gray67",
"]  c #B1B1B1",
"[  c gray70",
"{  c #B4B4B4",
"}  c gray73",
"|  c #BCBCBC",
" . c gray74",
".. c gray",
"X. c #C1C1C1",
"o. c gray76",
"O. c gray77",
"+. c #C6C6C6",
"@. c gray78",
"#. c #C8C8C8",
"$. c gray79",
"%. c #CACACA",
"&. c #CBCBCB",
"*. c gray80",
"=. c #CDCDCD",
"-. c #CECECE",
";. c gray81",
":. c #D0D0D0",
">. c gray82",
",. c #D2D2D2",
"<. c LightGray",
"1. c gray83",
"2. c #D5D5D5",
"3. c gray84",
"4. c #D7D7D7",
"5. c #D8D8D8",
"6. c gray85",
"7. c #DADADA",
"8. c gray86",
"9. c gainsboro",
"0. c #DDDDDD",
"q. c gray87",
"w. c #DFDFDF",
"e. c gray88",
"r. c #E1E1E1",
"t. c #E2E2E2",
"y. c gray89",
"u. c #E4E4E4",
"i. c gray90",
"p. c #E6E6E6",
"a. c #E7E7E7",
"s. c gray91",
"d. c #E9E9E9",
"f. c #EAEAEA",
"g. c #ECECEC",
"h. c gray93",
"j. c #EEEEEE",
"k. c #EFEFEF",
"l. c #F1F1F1",
"z. c #F3F3F3",
"x. c #F4F4F4",
"c. c gray96",
"v. c #F6F6F6",
"b. c gray97",
"n. c #F8F8F8",
"m. c #F9F9F9",
"M. c gray98",
"N. c #FBFBFB",
"B. c gray99",
"V. c #FDFDFD",
"C. c #FEFEFE",
"Z. c white",
/* pixels */
"Z.Z.Z.Z.N.Z.Z.Z.Z.b.Z.Z.Z.Z.Z.Z.Z.Z.Z.Z.Z.Z.Z.Z.Z.N.Z.Z.N.Z.Z.Z.",
"Z.N.N.N.Z.N.N.Z.e.e.q.q.e.5.q.5.q.q.e.5.5.3.5.e.Z.Z.Z.b.Z.N.Z.Z.",
"Z.Z.Z.Z.N.Z.N.q.G 6 r r 6 r r w 6 w r r r r s f } Z.b.Z.N.Z.N.Z.",
"N.Z.N.Z.N.Z.q.J . + , 4 4 , < 4 < 6 - 4 - . . + r *.Z.Z.Z.N.Z.N.",
"Z.Z.Z.Z.Z.$.C . . U 5.i.5.d.e.q.e.e.e.i.] s $ + . c *.N.N.Z.Z.Z.",
"Z.N.Z.Z.*.j . . B 5.Z.Z.Z.Z.Z.Z.Z.Z.N.Z.N.$.s . $ . f q.Z.N.Z.Z.",
"Z.N.z.*.j + $ j $.Z.Z.b.b.N.N.Z.N.N.Z.b.Z.Z.*.f . * . T b.N.N.Z.",
"N.Z.i.v . + f @.Z.Z.N.Z.Z.Z.b.Z.Z.Z.i.d.3.3.q.$.f . + 4 @.Z.Z.Z.",
"Z.Z.o.4 . c $.Z.z.e.5.q.i.Z.Z.N.Z.q.K 4 s C C i.$.j , + j ,.N.Z.",
"Z.5.C . w $.b.Z.5.c w r C ,.b.Z.g.U . r / ,.,.b.Z.e._ < . v e.Z.",
"Z.5.w . r i.b.Z.g.I w 6 . v q.Z.3.r v @.Z.Z.N.Z.N.Z.e.w . w q.Z.",
"Z.q.r . w q.Z.N.Z.g.e.$.s 4 { Z.i.! *.Z.b.N.N.N.Z.N.5.r . s q.N.",
"N.3.r . 6 q.Z.N.N.Z.N.Z.5.W @.Z.b.b.Z.Z.Z.Z.Z.Z.N.Z.5.r . w 5.Z.",
"Z.$.6 . r q.N.Z.Z.Z.N.Z.b.b.b.Z.Z.b.3.5.q.q.5.q.N.Z.q.r + r ,.Z.",
"Z.@.6 . w 5.Z.5.5.q.e.q.i.i.Z.N.$.P s r w r r c  .Z.5.w . 6 q.Z.",
"Z.5.6 . 6 q.e.B w r 6 r 6 S @.e.C $ . . . . . . f e.q.w . r 3.Z.",
"Z.5.r . w e.Z.) - . $ . . . v q.*.H 6 w w w w 4 j 5.q.6 . s 3.Z.",
"N.5.r . w ,.Z.b.E r w r w c  .Z.N.$.@.5.q.5.5.3.e.Z.3.s . s 3.Z.",
"Z.5.w + s 5.Z.Z.b.3.5.3.3.e.Z.Z.N.z.Z.Z.N.Z.N.Z.Z.Z.5.w . w q.Z.",
"Z.5.w . 6 e.Z.b.N.Z.Z.Z.Z.b.Z.Z.Z.Z.Z.Z.Z.Z.Z.Z.b.Z.q.6 + w 5.Z.",
"Z.5.w . w e.N.Z.Z.5.q.5.q.5.e.e.q.3.d.q.5.q.5.b.Z.Z.5.r . w 5.Z.",
"Z.5.r . r q.Z.N.e.v 6 r 6 w 6 4 r 6 6 4 r 4 B e.Z.b.e.w $ f e.N.",
"Z.3.s . 6 5.Z.N.z.! 6 6 6 w 6 6 4 r 4 w 4 j ' Z.N.Z.*.w . 4 5.Z.",
"Z.5.w . c q.Z.N.Z.b.e.q.q.3.e.5.q.q.q.q.5.i.Z.Z.Z.@.j $ . c 5.N.",
"Z.5.s - ^ N.Z.N.N.Z.Z.Z.Z.Z.Z.Z.Z.Z.Z.Z.Z.Z.b.Z.*.f . . f ,.z.Z.",
"Z.Z.! $ v *.d.Z.Z.N.N.N.Z.Z.b.N.N.N.Z.b.b.b.Z.q.B + + f $.Z.Z.Z.",
"N.N.q.S * 4 B o.i.Z.Z.N.b.Z.N.Z.N.Z.N.N.Z.Z.d.K . . 6 @.Z.b.Z.N.",
"N.Z.Z.d.] s < 6 C *.b.Z.N.Z.Z.Z.Z.Z.Z.Z.Z.Z.' < . , J g.Z.N.Z.Z.",
"Z.Z.Z.b.Z.d.o.< . - G $.e.,.3.3.*.$.,.$.,.{ s . r ( i.Z.N.Z.Z.Z.",
"Z.Z.Z.Z.Z.b.b.R w r s G K L G C j j f j f j < B  .b.N.Z.N.b.Z.Z.",
"Z.N.Z.N.Z.Z.Z.g.5.5.q.5.,.3.*.*.$.*.o.,.@.$.5.5.N.Z.Z.b.Z.Z.Z.Z.",
"Z.Z.Z.Z.Z.N.N.Z.Z.Z.Z.Z.Z.Z.Z.Z.Z.Z.Z.Z.Z.Z.Z.Z.N.Z.Z.Z.Z.N.Z.Z."
};
