/* XPM */
static char *_865ef5fd4014111ea35c150cfa5abbbpFp62f2MEolusQGn[] = {
/* columns rows colors chars-per-pixel */
"32 32 71 1 ",
"  c black",
". c #010101",
"X c #020202",
"o c gray1",
"O c #040404",
"+ c gray2",
"@ c #060606",
"# c #070707",
"$ c gray3",
"% c #090909",
"& c gray4",
"* c #0B0B0B",
"= c #0C0C0C",
"- c gray5",
"; c #161616",
": c gray9",
"> c #191919",
", c gray10",
"< c gray11",
"1 c #1D1D1D",
"2 c #1E1E1E",
"3 c #222222",
"4 c gray14",
"5 c #2C2C2C",
"6 c #323232",
"7 c #343434",
"8 c gray21",
"9 c #3C3C3C",
"0 c #464646",
"q c #515151",
"w c #555555",
"e c #646464",
"r c #686868",
"t c DimGray",
"y c #6C6C6C",
"u c #767676",
"i c #888888",
"p c #8B8B8B",
"a c #939393",
"s c #A5A5A5",
"d c #B2B2B2",
"f c gray74",
"g c gray75",
"h c #D0D0D0",
"j c gray82",
"k c LightGray",
"l c gray83",
"z c #D5D5D5",
"x c #D7D7D7",
"c c gray85",
"v c #DADADA",
"b c gray87",
"n c #E2E2E2",
"m c gray90",
"M c #E9E9E9",
"N c #EFEFEF",
"B c gray94",
"V c #F1F1F1",
"C c #F3F3F3",
"Z c #F4F4F4",
"A c gray96",
"S c #F6F6F6",
"D c gray97",
"F c #F8F8F8",
"G c #F9F9F9",
"H c gray98",
"J c #FBFBFB",
"K c gray99",
"L c #FDFDFD",
"P c #FEFEFE",
"I c white",
/* pixels */
"IIIIIIIIIIIIIJIIIIIIIIIIIJIIJIJI",
"JJJJIIDIIIJIIJIIIIIJIIIIIJIJIIII",
"JIIIIJIJ3 %  O  O   % OOkJIIIIII",
"IJJIIII0OO  %  O %    O  IJJJJII",
"IJIIIJ<  yJIIIIJJIIIk  OOOIIIIJI",
"IIIII%  ;IDICIIIIIIIJI    OIJIII",
"JIII <  IJIIIIJIIJIIIII O OtIJII",
"III % OIIIIIJIIIJIDIICIJ   OCIIJ",
"IIJ%  IIIJIIJIIIIJIIIIJICO   III",
"IIO %IIJJIIIIDIIIIIJIJIDIIf %,JI",
"ID- %MIIII   IJIIIJI % IICI   II",
"II O DIIII OOJJIIIII%O JIII   II",
"JI   IJIII   IIIIIIJ   IJJI   IJ",
"Iz%  JIJJI   IDIIIJI O IIIJO  DI",
"Iz O IIIID O DIIIIII   IJII O ID",
"II  %JIIJI   IIIIIDI   JIJI   JI",
"IJ   IIIII   IIIIJIJOO IIII  OJI",
"IJO  IIJIIO OIJIIIII3%%IIJIO  IJ",
"II  OJIIIIIIIJJIJJIJIJIJIIJ   IJ",
"JI - IJIm% OJIIJIIJ8  IIIJI   II",
"IJO  II   OpIIIIIIIIv   JIJ  OII",
"JI  %JDkI %-IIJIIIJII  OtII  ;JI",
"II   IIIJ9O vIIIIDID OwIIDI O II",
"II O IIJIn  OaIIIII OOIIbIO  %JI",
"IJ OsIIIII % %       CIIJOO  IDI",
"IIpO;JIIIJIu%   % - IIIJ,O  IIII",
"JIJ, OOIJIIIJIIzfmJJJIJq  OIIIDI",
"IIIDk OO-JIIIDIIIIIIIJd  %0IIIII",
"IJIIIIDO  8DIIIIIDIDIJ  OsDIDIII",
"IIJJIIIe  ,6654<       ;vIIJIJII",
"IIIIIIJIIIIIIINJJIIIIIIJIIIJIJII",
"IJIIIIIJIIIIIJIIIIJJIIIIIJIIIIJI"
};
