/* XPM */
static char *_70273a45c884845b85941d1056c64973923TcaWWwr749sT[] = {
/* columns rows colors chars-per-pixel */
"32 32 172 2 ",
"   c black",
".  c #010101",
"X  c #020202",
"o  c gray1",
"O  c #040404",
"+  c gray2",
"@  c #060606",
"#  c #070707",
"$  c gray3",
"%  c #090909",
"&  c gray4",
"*  c #0B0B0B",
"=  c #0C0C0C",
"-  c gray6",
";  c #101010",
":  c #111111",
">  c gray7",
",  c #131313",
"<  c gray8",
"1  c #151515",
"2  c #161616",
"3  c gray9",
"4  c #181818",
"5  c #191919",
"6  c gray10",
"7  c #1B1B1B",
"8  c gray11",
"9  c #1D1D1D",
"0  c #1E1E1E",
"q  c gray12",
"w  c #202020",
"e  c gray13",
"r  c #222222",
"t  c #232323",
"y  c gray14",
"u  c #252525",
"i  c gray15",
"p  c #272727",
"a  c #282828",
"s  c gray16",
"d  c #2A2A2A",
"f  c gray17",
"g  c #2C2C2C",
"h  c #2D2D2D",
"j  c gray18",
"k  c #2F2F2F",
"l  c gray19",
"z  c #313131",
"x  c #323232",
"c  c gray20",
"v  c #343434",
"b  c #353535",
"n  c gray21",
"m  c #373737",
"M  c gray22",
"N  c #393939",
"B  c #3A3A3A",
"V  c gray23",
"C  c #3C3C3C",
"Z  c gray24",
"A  c #3E3E3E",
"S  c #3F3F3F",
"D  c gray25",
"F  c #414141",
"G  c gray26",
"H  c #434343",
"J  c #444444",
"K  c gray27",
"L  c #484848",
"P  c #4B4B4B",
"I  c gray30",
"U  c #4E4E4E",
"Y  c gray31",
"T  c #505050",
"R  c #515151",
"E  c gray32",
"W  c gray33",
"Q  c #555555",
"!  c gray35",
"~  c #5B5B5B",
"^  c gray37",
"/  c #656565",
"(  c gray40",
")  c #6D6D6D",
"_  c gray46",
"`  c #7B7B7B",
"'  c #808080",
"]  c #8B8B8B",
"[  c gray55",
"{  c #8D8D8D",
"}  c gray59",
"|  c #9F9F9F",
" . c gray65",
".. c #A9A9A9",
"X. c #AAAAAA",
"o. c gray69",
"O. c #B1B1B1",
"+. c #B2B2B2",
"@. c gray70",
"#. c gray71",
"$. c #B6B6B6",
"%. c #B7B7B7",
"&. c gray72",
"*. c #B9B9B9",
"=. c gray73",
"-. c #BCBCBC",
";. c gray",
":. c gray75",
">. c #C0C0C0",
",. c #C1C1C1",
"<. c gray76",
"1. c #C3C3C3",
"2. c gray77",
"3. c #C5C5C5",
"4. c #C6C6C6",
"5. c gray78",
"6. c #C8C8C8",
"7. c gray79",
"8. c #CACACA",
"9. c #CBCBCB",
"0. c gray80",
"q. c #CDCDCD",
"w. c #CECECE",
"e. c gray81",
"r. c #D0D0D0",
"t. c gray82",
"y. c #D2D2D2",
"u. c LightGray",
"i. c gray83",
"p. c #D5D5D5",
"a. c gray84",
"s. c #D7D7D7",
"d. c #D8D8D8",
"f. c gray85",
"g. c #DADADA",
"h. c gray86",
"j. c gainsboro",
"k. c #DDDDDD",
"l. c gray87",
"z. c #DFDFDF",
"x. c gray88",
"c. c #E1E1E1",
"v. c #E2E2E2",
"b. c gray89",
"n. c #E4E4E4",
"m. c gray90",
"M. c #E6E6E6",
"N. c #E7E7E7",
"B. c gray91",
"V. c #E9E9E9",
"C. c #EAEAEA",
"Z. c gray92",
"A. c #ECECEC",
"S. c gray93",
"D. c #EEEEEE",
"F. c #EFEFEF",
"G. c gray94",
"H. c #F1F1F1",
"J. c gray95",
"K. c #F3F3F3",
"L. c #F4F4F4",
"P. c gray96",
"I. c #F6F6F6",
"U. c gray97",
"Y. c #F8F8F8",
"T. c #F9F9F9",
"R. c gray98",
"E. c #FBFBFB",
"W. c gray99",
"Q. c #FDFDFD",
"!. c #FEFEFE",
"~. c white",
/* pixels */
"~.~.~.~.U.~.~.~.~.U.~.~.~.~.~.~.~.~.~.~.~.~.~.~.~.E.~.~.E.~.~.~.",
"~.E.~.~.~.E.E.E.c.c.j.h.j.h.c.j.j.c.h.j.j.j.s.c.~.~.~.U.~.E.~.~.",
"~.~.~.~.U.~.E.c.I q a a i a a i a i i w a i j c *.~.E.~.E.~.E.~.",
"U.~.E.~.E.~.j.!   + 4 w q 3 4 q 3 q 3 i 3     + a w.~.~.~.E.~.E.",
"~.~.~.~.~.8.K   + ) h.n.s.n.c.j.n.c.j.n.O.a +     v w.E.E.~.E.~.",
"~.E.~.E.8.c     K h.~.~.~.E.~.~.~.E.~.~.~.8.v + +   v c.~.E.~.~.",
"~.E.U.w.V + $ c 8.E.~.E.E.~.E.E.~.~.~.E.E.~.8.j   -   _ U.E.E.~.",
"E.~.n.V   + c 8.~.~.E.~.~.~.E.~.~.~.E.~.E.E.E.w.j   + q 2.~.~.~.",
"~.U.2.i   v 8.~.U.~.~.~.~.~.~.~.~.E.~.~.~.E.~.D.1.V 3 + c r.E.~.",
"~.j.Z   w w.~.E.E.~.E.~.U.~.~.~.~.~.E.E.~.B.*.Q j.c.| q   K n.E.",
"~.s.a   j s.h.r.n.E.E.~.E.E.~.~.~.~.E.~.r.D 3 q r.~.j.w   i s.~.",
"~.s.a   c w.! q c ..D.E.~.~.K.~.~.E.~.j.Q   > V n.~.s.a + a s.~.",
"~.h.i   i h.B.O.i > Z w.U.E.~.~.~.~.h.I + j %.B.K.~.s.a   i j.~.",
"~.1.i   a h.~.~.w.Z $ 4 ' n.~.~.~.1.c - V 8.~.E.~.~.c.i   a s.E.",
"E.2.q $ w h.E.K.E.B.%.Z   V ;.~.c.D a %.c.~.~.E.~.~.j.a + i j.~.",
"~.h.i   j s.~.E.B.j.n.;.Z 4 K n.U.1.n.B.c.c.K.~.U.~.s.a   i h.~.",
"~.s.i   i h.~.j.V w q K ;.j.j.E.~.~.8.v q w ( D.~.~.h.a   w j.~.",
"~.h.a   a j.E.w.>       L K.~.K.~.j.j     + j j.~.~.s.i   a h.~.",
"~.h.a   i j.~.j.V > q i [ D.K.E.~.r.V w w v  .E.~.~.c.i   i s.E.",
"~.s.i   i h.~.E.h...*.c.~.~.~.~.~.U.B.h.j.n.E.~.E.~.s.a + a j.~.",
"~.s.i   a j.~.E.~.~.~.B.h.c.j.r.8.s.j.n.~.E.~.E.~.~.h.j   a r.~.",
"~.h.j   i h.~.E.U.h.2.T w w w w q q q Z 2.n.E.~.E.~.c.w   v j.~.",
"E.h.j   a h.~.~.c.I 4 >   q i w q w q + 4 K h.~.E.~.2.w   w h.~.",
"~.s.i   v c.E.E.E.O.q   D 2.h.s.h.j.2.V > D h.~.~.8.V $   v h.~.",
"~.j.j - [ ~.~.U.~.h.w c s.~.E.~.~.~.~.n.j.n.E.~.w.j     v r.K.~.",
"~.~.] $ Z w.B.~.~.r.D 1.E.K.~.~.~.K.~.~.~.E.~.s.Z + $ c 8.~.~.~.",
"E.E.j.L - q D 1.D.K.B.E.~.E.~.E.E.E.~.~.U.U.B.( +   w 2.~.U.~.E.",
"~.~.~.B.O.j 3 w D w.K.E.~.~.~.~.~.~.~.E.~.~...>   3 ^ D.E.~.~.~.",
"~.~.~.U.~.n.1.q   3 I 8.h.h.r.s.r.w.r.w.w.*.j   j } c.~.~.~.E.~.",
"~.~.E.~.~.U.U.` a i c T ^ Q T K v v c v c v 4 D ;.E.~.~.U.E.~.~.",
"~.E.~.E.~.~.~.D.h.j.h.s.s.h.r.w.2.w.2.w.1.8.j.j.~.~.~.U.~.~.~.~.",
"~.~.~.~.~.~.~.~.~.~.U.~.~.~.~.~.~.~.~.~.~.E.~.~.E.~.~.~.~.~.~.~."
};
