/* XPM */
static char *_085ed7e060c4c06bf6681dc923c6f2baNm2LrtG1NDsbLnn[] = {
/* columns rows colors chars-per-pixel */
"32 32 154 2 ",
"   c black",
".  c #010101",
"X  c #020202",
"o  c gray1",
"O  c #040404",
"+  c gray2",
"@  c #060606",
"#  c #070707",
"$  c gray3",
"%  c #090909",
"&  c gray4",
"*  c gray6",
"=  c #111111",
"-  c gray7",
";  c #131313",
":  c gray8",
">  c #151515",
",  c #161616",
"<  c gray9",
"1  c #181818",
"2  c #191919",
"3  c gray10",
"4  c #1B1B1B",
"5  c gray11",
"6  c #1D1D1D",
"7  c #1E1E1E",
"8  c gray12",
"9  c #202020",
"0  c gray13",
"q  c #222222",
"w  c #232323",
"e  c gray14",
"r  c #252525",
"t  c gray15",
"y  c #272727",
"u  c #282828",
"i  c gray16",
"p  c #2A2A2A",
"a  c gray17",
"s  c #2C2C2C",
"d  c #2D2D2D",
"f  c gray18",
"g  c #2F2F2F",
"h  c gray19",
"j  c #313131",
"k  c #323232",
"l  c gray20",
"z  c #343434",
"x  c #353535",
"c  c gray21",
"v  c #373737",
"b  c gray22",
"n  c #393939",
"m  c #3A3A3A",
"M  c gray23",
"N  c #3C3C3C",
"B  c #3E3E3E",
"V  c #3F3F3F",
"C  c gray25",
"Z  c #414141",
"A  c gray26",
"S  c #434343",
"D  c #444444",
"F  c #464646",
"G  c gray28",
"H  c #484848",
"J  c #4E4E4E",
"K  c gray31",
"L  c #535353",
"P  c #555555",
"I  c #5A5A5A",
"U  c gray36",
"Y  c #5D5D5D",
"T  c #606060",
"R  c #6D6D6D",
"E  c gray47",
"W  c gray48",
"Q  c gray54",
"!  c #8E8E8E",
"~  c #959595",
"^  c #989898",
"/  c #A2A2A2",
"(  c #A4A4A4",
")  c #AAAAAA",
"_  c gray67",
"`  c #ACACAC",
"'  c gray69",
"]  c #B1B1B1",
"[  c #B2B2B2",
"{  c gray71",
"}  c #B9B9B9",
"|  c #BBBBBB",
" . c #BCBCBC",
".. c gray75",
"X. c #C1C1C1",
"o. c gray76",
"O. c gray77",
"+. c #C5C5C5",
"@. c #C6C6C6",
"#. c gray78",
"$. c #C8C8C8",
"%. c gray79",
"&. c #CACACA",
"*. c #CBCBCB",
"=. c gray80",
"-. c #CDCDCD",
";. c #CECECE",
":. c gray81",
">. c #D0D0D0",
",. c gray82",
"<. c #D2D2D2",
"1. c LightGray",
"2. c gray83",
"3. c #D5D5D5",
"4. c gray84",
"5. c #D7D7D7",
"6. c #D8D8D8",
"7. c gray85",
"8. c #DADADA",
"9. c gray86",
"0. c gainsboro",
"q. c #DDDDDD",
"w. c gray87",
"e. c #DFDFDF",
"r. c gray88",
"t. c #E1E1E1",
"y. c #E2E2E2",
"u. c gray89",
"i. c #E4E4E4",
"p. c gray90",
"a. c #E6E6E6",
"s. c #E7E7E7",
"d. c gray91",
"f. c gray92",
"g. c #ECECEC",
"h. c gray93",
"j. c #EEEEEE",
"k. c #EFEFEF",
"l. c gray94",
"z. c #F1F1F1",
"x. c gray95",
"c. c #F3F3F3",
"v. c #F4F4F4",
"b. c gray96",
"n. c #F6F6F6",
"m. c gray97",
"M. c #F8F8F8",
"N. c #F9F9F9",
"B. c gray98",
"V. c #FBFBFB",
"C. c gray99",
"Z. c #FDFDFD",
"A. c #FEFEFE",
"S. c white",
/* pixels */
"S.S.S.S.V.S.S.S.S.n.S.S.S.S.S.S.S.S.S.S.S.S.S.S.S.V.S.S.V.S.V.S.",
"S.V.V.V.S.V.V.S.r.r.w.8.w.8.r.w.w.w.8.w.w.r.8.r.S.S.S.S.S.S.S.S.",
"S.S.S.S.V.S.V.w.J 8 y i w i i i d 8 w y d 8 d c } S.V.V.S.S.S.S.",
"V.S.V.S.V.S.w.I . + < 8 8 < 2 8 < y 2 w * + . . i =.S.S.S.V.S.S.",
"S.S.S.S.S.&.F . + R 8.i.8.d.r.w.i.w.8.i.[ i % % . n =.V.V.S.V.S.",
"S.V.S.S.=.c . . S 8.S.S.S.S.S.S.S.S.S.S.V.#.j . % . n 8.S.n.S.S.",
"S.V.c.=.c + % c #.V.S.V.V.S.V.V.V.n.V.S.S.S.&.j . = . W j.S.n.S.",
"V.S.i.N . + j #.S.V.V.S.S.S.V.S.S.S.V.S.V.V.S.&.d . + 8 #.S.S.S.",
"S.n.&.2 + c #.S.V.S.S.S.S.V.S.S.S.n.S.S.S.S.S.S.#.n < . j 1.V.V.",
"S.8.N . 8 &.S.V.V.S.w.w.w.S.S.S.S.S.S.V.8.r.w.S.S.r./ 8 . S r.S.",
"S.w.i . i 5.S.V.S.8.H w N w.S.n.V.V.S.r.F 8 S w.S.S.r.y . y 1.S.",
"S.8.8 . i 5.S.V.S.5.w . w w.S.S.S.S.V.w.w . w w.S.n.5.y . d 8.S.",
"S.8.y + w w.S.V.V.8.i . i w.V.V.S.S.S.w.w + y 8.S.S.8.d . y r.S.",
"S.#.y . y w.S.V.S.w.i . i w.S.S.S.V.S.w.y . w w.S.V.r.8 . y 5.S.",
"S.#.2 . y w.S.V.S.8.y . i 1.V.S.S.n.S.w.y . y 8.S.V.w.y % y 5.S.",
"S.5.i . w r.S.n.S.w.i . y w.S.V.S.V.S.r.y . y w.S.V.w.y . d 5.S.",
"S.8.i . y w.S.V.S.8.8 + w 8.S.S.S.V.S.w.8 . w 8.S.S.5.y . i 8.S.",
"S.8.i . y w.S.V.S.8.S < N 8.S.S.S.n.S.w.H 8 N r.S.V.w.w + y 8.S.",
"S.8.i . i w.S.V.S.V.8.8.r.V.S.S.S.S.V.V.i.8.w.n.V.S.i.y . w 5.S.",
"S.8.y . i w.S.S.V.r.c.r.i.i.w.r.i.w.i.r.d.c.S.S.S.S.5.i . i w.S.",
"S.8.y . y w.V.S.r.n < 8 8 2 8 8 2 2 2 y = d [ i.c.S.w.y . y 8.S.",
"S.8.y . i w.V.S.5.y y c j j i y i c c j c j d n 8.S.i.w + j w.S.",
"S.8.y . i w.V.S.1.d _ 8.} =.8.w.8.#.&.#.#.5.~ 8 =.S.#.i . y 5.S.",
"S.8.y . d w.V.S.w.j w n N F _ S.d.U d n S c y j 5.1.n + . n 8.S.",
"S.w.d * ! S.V.V.V.&.j % ` 8.d.S.V.w.=.w._ < i =.=.j . . j 1.n.S.",
"S.S.Q % S =.d.S.S.S.1.n N #.1.=.1.&.1...N c =.w.S . . c =.S.V.S.",
"V.S.w.F * 8 S o.j.j.S.=.j w d d i d n 2 j =.j.T . + y o.S.V.S.n.",
"V.S.S.d.[ d 2 w S 1.j.S.r.r.=.5.5.1.1.8.i.V.( < . = I c.S.V.S.S.",
"S.S.S.n.S.d.o.2 . < L &.8.8.w.8.5.5.8.=.8.{ y . i ^ i.S.V.S.S.S.",
"S.S.V.S.S.n.n.W i y d J U P J N d d j d j j 8 N ..V.S.S.n.V.S.S.",
"S.V.S.S.S.S.S.d.8.8.r.5.8.5.=.1.&.=.=.&.&.&.w.r.S.S.S.V.S.S.S.S.",
"S.S.S.S.S.V.S.S.S.S.S.S.S.V.S.S.S.S.S.V.S.S.S.V.V.S.S.S.S.S.S.S."
};
